UNKNOWN
version=1
nRows=27
nColumns=19
inDegrees=no
endheader
time	rF_x	rF_y	rF_z	rCOP_x	rCOP_y	rCOP_z	lF_x	lF_y	lF_z	lCOP_x	lCOP_y	lCOP_z	rT_x	rT_y	rT_z	lT_x	lT_y	lT_z
      5.75600000	     97.33147900	   1381.67350800	    -45.36832800	      1.08631100	      0.01150000	     -0.45281600	      0.00000000	      0.00000000	      0.00000000	      0.92177900	      0.01150000	     -0.53219100	      0.00000000	     -2.87499800	      0.00000000	      0.00000000	      0.00000000	      0.00000000
      5.75650000	     99.10283000	   1373.47863400	    -45.08006800	      1.08511600	      0.01150000	     -0.45278600	      0.00000000	      0.00000000	      0.00000000	      0.92284100	      0.01150000	     -0.53219400	      0.00000000	     -2.87279900	      0.00000000	      0.00000000	      0.00000000	      0.00000000
      5.75700000	    100.85796500	   1365.23361600	    -44.79538200	      1.08391900	      0.01150000	     -0.45275700	      0.00000000	      0.00000000	      0.00000000	      0.92390300	      0.01150000	     -0.53219600	      0.00000000	     -2.87085900	      0.00000000	      0.00000000	      0.00000000	      0.00000000
      5.75750000	    102.59641500	   1356.93993200	    -44.51400500	      1.08272000	      0.01150000	     -0.45272900	      0.00000000	      0.00000000	      0.00000000	      0.92496500	      0.01150000	     -0.53219900	      0.00000000	     -2.86944500	      0.00000000	      0.00000000	      0.00000000	      0.00000000
      5.75800000	    104.31768000	   1348.59906000	    -44.23565700	      1.08151900	      0.01150000	     -0.45270200	      0.00000000	      0.00000000	      0.00000000	      0.92602800	      0.01150000	     -0.53220100	      0.00000000	     -2.86881200	      0.00000000	      0.00000000	      0.00000000	      0.00000000
      5.75850000	    106.02123200	   1340.21247200	    -43.96004400	      1.08031600	      0.01150000	     -0.45267500	      0.00000000	      0.00000000	      0.00000000	      0.92709000	      0.01150000	     -0.53220400	      0.00000000	     -2.86919700	      0.00000000	      0.00000000	      0.00000000	      0.00000000
      5.75900000	    107.70652600	   1331.78163600	    -43.68684800	      1.07911000	      0.01150000	     -0.45264900	      0.00000000	      0.00000000	      0.00000000	      0.92815200	      0.01150000	     -0.53220600	      0.00000000	     -2.87081400	      0.00000000	      0.00000000	      0.00000000	      0.00000000
      5.75950000	    109.37299400	   1323.30801200	    -43.41571700	      1.07790200	      0.01150000	     -0.45262400	      0.00000000	      0.00000000	      0.00000000	      0.92921400	      0.01150000	     -0.53220900	      0.00000000	     -2.87384100	      0.00000000	      0.00000000	      0.00000000	      0.00000000
      5.76000000	    111.02005200	   1314.79304000	    -43.14626500	      1.07669300	      0.01150000	     -0.45259900	      0.00000000	      0.00000000	      0.00000000	      0.93027600	      0.01150000	     -0.53221200	      0.00000000	     -2.87841500	      0.00000000	      0.00000000	      0.00000000	      0.00000000
      5.76050000	    112.64708000	   1306.23811200	    -42.87808200	      1.07548100	      0.01150000	     -0.45257500	      0.00000000	      0.00000000	      0.00000000	      0.93141800	      0.01150000	     -0.53220800	      0.00000000	     -2.88461400	      0.00000000	      0.00000000	      0.00000000	      0.00000000
      5.76100000	    114.25342800	   1297.64454600	    -42.61076100	      1.07426700	      0.01150000	     -0.45255100	      0.00000000	      0.00000000	      0.00000000	      0.93256100	      0.01150000	     -0.53220300	      0.00000000	     -2.89245700	      0.00000000	      0.00000000	      0.00000000	      0.00000000
      5.76150000	    115.83840900	   1289.01355400	    -42.34392200	      1.07305100	      0.01150000	     -0.45252800	      0.00000000	      0.00000000	      0.00000000	      0.93370300	      0.01150000	     -0.53219900	      0.00000000	     -2.90189900	      0.00000000	      0.00000000	      0.00000000	      0.00000000
      5.76200000	    117.40130200	   1280.34621100	    -42.07722700	      1.07183400	      0.01150000	     -0.45250600	      0.00000000	      0.00000000	      0.00000000	      0.93484500	      0.01150000	     -0.53219500	      0.00000000	     -2.91284200	      0.00000000	      0.00000000	      0.00000000	      0.00000000
      5.76250000	    118.94135700	   1271.64344300	    -41.81039200	      1.07061400	      0.01150000	     -0.45248400	      0.00000000	      0.00000000	      0.00000000	      0.93598700	      0.01150000	     -0.53219100	      0.00000000	     -2.92513800	      0.00000000	      0.00000000	      0.00000000	      0.00000000
      5.76300000	    120.45778200	   1262.90602000	    -41.54318300	      1.06939300	      0.01150000	     -0.45246300	      0.00000000	      0.00000000	      0.00000000	      0.93712900	      0.01150000	     -0.53218700	      0.00000000	     -2.93858500	      0.00000000	      0.00000000	      0.00000000	      0.00000000
      5.76350000	    121.94974800	   1254.13456900	    -41.27540400	      1.06817100	      0.01150000	     -0.45244200	      0.00000000	      0.00000000	      0.00000000	      0.93827100	      0.01150000	     -0.53218300	      0.00000000	     -2.95294300	      0.00000000	      0.00000000	      0.00000000	      0.00000000
      5.76400000	    123.41639400	   1245.32959400	    -41.00688700	      1.06694700	      0.01150000	     -0.45242200	      0.00000000	      0.00000000	      0.00000000	      0.93941300	      0.01150000	     -0.53217900	      0.00000000	     -2.96793000	      0.00000000	      0.00000000	      0.00000000	      0.00000000
      5.76450000	    124.85683300	   1236.49151400	    -40.73748400	      1.06572100	      0.01150000	     -0.45240200	      0.00000000	      0.00000000	      0.00000000	      0.94055600	      0.01150000	     -0.53217500	      0.00000000	     -2.98324100	      0.00000000	      0.00000000	      0.00000000	      0.00000000
      5.76500000	    126.27015500	   1227.62070900	    -40.46706800	      1.06449500	      0.01150000	     -0.45238300	      0.00000000	      0.00000000	      0.00000000	      0.94169800	      0.01150000	     -0.53217100	      0.00000000	     -2.99855400	      0.00000000	      0.00000000	      0.00000000	      0.00000000
      5.76550000	    127.65543200	   1218.71754600	    -40.19554500	      1.06326700	      0.01150000	     -0.45236400	      0.00000000	      0.00000000	      0.00000000	      0.94284000	      0.01150000	     -0.53216700	      0.00000000	     -3.01354600	      0.00000000	      0.00000000	      0.00000000	      0.00000000
      5.76600000	    129.01171200	   1209.78241000	    -39.92285000	      1.06203700	      0.01150000	     -0.45234600	      0.00000000	      0.00000000	      0.00000000	      0.94398200	      0.01150000	     -0.53216300	      0.00000000	     -3.02789500	      0.00000000	      0.00000000	      0.00000000	      0.00000000
      5.76650000	    130.33802200	   1200.81572200	    -39.64895100	      1.06080700	      0.01150000	     -0.45232800	      0.00000000	      0.00000000	      0.00000000	      0.94512400	      0.01150000	     -0.53215900	      0.00000000	     -3.04129900	      0.00000000	      0.00000000	      0.00000000	      0.00000000
      5.76700000	    131.63337900	   1191.81794400	    -39.37384000	      1.05957600	      0.01150000	     -0.45231100	      0.00000000	      0.00000000	      0.00000000	      0.94626600	      0.01150000	     -0.53215500	      0.00000000	     -3.05346900	      0.00000000	      0.00000000	      0.00000000	      0.00000000
      5.76750000	    132.89680600	   1182.78957900	    -39.09753000	      1.05834300	      0.01150000	     -0.45229400	      0.00000000	      0.00000000	      0.00000000	      0.94740800	      0.01150000	     -0.53215100	      0.00000000	     -3.06413800	      0.00000000	      0.00000000	      0.00000000	      0.00000000
      5.76800000	    134.12736200	   1173.73118300	    -38.82004700	      1.05711000	      0.01150000	     -0.45227800	      0.00000000	      0.00000000	      0.00000000	      0.94855100	      0.01150000	     -0.53214700	      0.00000000	     -3.07305900	      0.00000000	      0.00000000	      0.00000000	      0.00000000
      5.76850000	    135.32415400	   1164.64335900	    -38.54142400	      1.05587700	      0.01150000	     -0.45226200	      0.00000000	      0.00000000	      0.00000000	      0.94969300	      0.01150000	     -0.53214300	      0.00000000	     -3.08001800	      0.00000000	      0.00000000	      0.00000000	      0.00000000
      5.76900000	    136.48634900	   1155.52676100	    -38.26170000	      1.05464300	      0.01150000	     -0.45224600	      0.00000000	      0.00000000	      0.00000000	      0.95083500	      0.01150000	     -0.53213900	      0.00000000	     -3.08484300	      0.00000000	      0.00000000	      0.00000000	      0.00000000
